<?xml version="1.0" encoding="UTF-8"?>
<svg id="Layer_1" data-name="Layer 1" xmlns="http://www.w3.org/2000/svg" viewBox="0 0 800 800">
  <defs>
    <style>
      .cls-1, .cls-2 {
        stroke-width: 0px;
      }

      .cls-2 {
        fill: #f7df1e;
      }
    </style>
  </defs>
  <path class="cls-2" d="m0,0h800v800H0V0Z"/>
  <path class="cls-1" d="m210.35,668.54l61.22-37.05c11.81,20.94,22.56,38.66,48.33,38.66s40.28-9.66,40.28-47.25v-255.62h75.18v256.68c0,77.87-45.64,113.31-112.24,113.31-60.14,0-95.05-31.15-112.77-68.74m265.84-8.05l61.21-35.44c16.12,26.32,37.06,45.65,74.11,45.65,31.15,0,51.02-15.57,51.02-37.06,0-25.78-20.41-34.91-54.77-49.94l-18.79-8.06c-54.24-23.08-90.22-52.08-90.22-113.3,0-56.39,42.96-99.35,110.09-99.35,47.79,0,82.16,16.65,106.86,60.15l-58.54,37.59c-12.89-23.09-26.85-32.22-48.33-32.22s-35.98,13.96-35.98,32.22c0,22.55,13.96,31.69,46.18,45.65l18.79,8.05c63.91,27.39,99.88,55.31,99.88,118.14,0,67.67-53.16,104.72-124.58,104.72s-114.92-33.29-136.93-76.79"/>
</svg>