<?xml version="1.0" encoding="UTF-8"?>
<svg id="Layer_1" data-name="Layer 1" xmlns="http://www.w3.org/2000/svg" viewBox="0 0 252.9 252.9">
  <defs>
    <style>
      .cls-1 {
        fill: #2ab540;
      }

      .cls-1, .cls-2 {
        stroke-width: 0px;
      }

      .cls-2 {
        fill: #fff;
      }
    </style>
  </defs>
  <circle class="cls-1" cx="126.45" cy="126.45" r="126.45"/>
  <path class="cls-2" d="m45.35,125.71c0,14.35,3.74,28.36,10.87,40.7l-11.55,42.19,43.18-11.32c11.89,6.49,25.29,9.91,38.92,9.91h.03c44.88,0,81.42-36.53,81.44-81.42,0-21.76-8.46-42.21-23.83-57.6-15.38-15.39-35.82-23.87-57.61-23.88-44.89,0-81.43,36.52-81.45,81.41m25.71,38.58l-1.61-2.56c-6.78-10.77-10.35-23.23-10.35-36.01.01-37.31,30.38-67.67,67.72-67.67,18.08,0,35.07,7.06,47.86,19.84,12.78,12.79,19.81,29.79,19.81,47.87-.02,37.31-30.38,67.67-67.69,67.67h-.03c-12.15,0-24.06-3.27-34.45-9.43l-2.47-1.47-25.62,6.72,6.84-24.97Zm55.73,42.9h0s0,0,0,0"/>
  <path class="cls-2" d="m106.44,91.67c-1.53-3.39-3.13-3.46-4.58-3.52-1.19-.05-2.54-.05-3.9-.05s-3.56.51-5.43,2.55c-1.87,2.04-7.12,6.96-7.12,16.97s7.29,19.69,8.31,21.05c1.02,1.36,14.08,22.56,34.76,30.72,17.19,6.78,20.69,5.43,24.42,5.09s12.04-4.92,13.74-9.67c1.7-4.75,1.7-8.82,1.19-9.67-.51-.85-1.87-1.36-3.9-2.37s-12.04-5.94-13.9-6.62c-1.87-.68-3.22-1.02-4.58,1.02-1.36,2.03-5.25,6.62-6.44,7.97-1.19,1.36-2.37,1.53-4.41.51-2.03-1.02-8.59-3.17-16.37-10.1-6.05-5.4-10.13-12.05-11.32-14.09-1.19-2.03-.13-3.14.89-4.15.91-.91,2.03-2.38,3.05-3.56,1.01-1.19,1.35-2.04,2.03-3.39.68-1.36.34-2.55-.17-3.57-.51-1.02-4.46-11.08-6.27-15.11"/>
</svg>